<?xml version="1.0" standalone="no"?>
<!DOCTYPE svg PUBLIC "-//W3C//DTD SVG 20010904//EN"
 "http://www.w3.org/TR/2001/REC-SVG-20010904/DTD/svg10.dtd">
<svg version="1.0" xmlns="http://www.w3.org/2000/svg"
 width="200.000000pt" height="200.000000pt" viewBox="0 0 200.000000 200.000000"
 preserveAspectRatio="xMidYMid meet">
<metadata>
Created by potrace 1.11, written by Peter Selinger 2001-2013
</metadata>
<g transform="translate(0.000000,200.000000) scale(0.100000,-0.100000)"
fill="#000000" stroke="none">
<path d="M473 1844 c-150 -32 -293 -142 -365 -281 -90 -171 -82 -374 20 -542
28 -46 147 -173 452 -477 227 -228 416 -414 420 -414 3 0 199 195 436 433 409
410 432 436 462 503 77 170 77 326 1 481 -66 137 -207 255 -349 293 -171 46
-377 -5 -513 -127 l-38 -34 -51 45 c-124 109 -308 155 -475 120z"/>
</g>
</svg>
