<svg xmlns="http://www.w3.org/2000/svg" width="135" height="40" viewBox="0 0 135 40"><defs><linearGradient id="a" x1="31.8" x2="15.017" y1="183.29" y2="166.508" gradientUnits="userSpaceOnUse" gradientTransform="matrix(.8 0 0 -.8 -.3 160.1)"><stop offset="0" stop-color="#00a0ff"/><stop offset=".007" stop-color="#00a1ff"/><stop offset=".26" stop-color="#00beff"/><stop offset=".512" stop-color="#00d2ff"/><stop offset=".76" stop-color="#00dfff"/><stop offset="1" stop-color="#00e3ff"/></linearGradient><linearGradient id="b" x1="43.834" x2="19.638" y1="171.999" y2="171.999" gradientUnits="userSpaceOnUse" gradientTransform="matrix(.8 0 0 -.8 -.3 160.1)"><stop offset="0" stop-color="#ffe000"/><stop offset=".409" stop-color="#ffbd00"/><stop offset=".775" stop-color="orange"/><stop offset="1" stop-color="#ff9c00"/></linearGradient><linearGradient id="c" x1="34.827" x2="12.069" y1="169.704" y2="146.946" gradientUnits="userSpaceOnUse" gradientTransform="matrix(.8 0 0 -.8 -.3 160.1)"><stop offset="0" stop-color="#ff3a44"/><stop offset="1" stop-color="#c31162"/></linearGradient><linearGradient id="d" x1="17.297" x2="27.46" y1="191.824" y2="181.661" gradientUnits="userSpaceOnUse" gradientTransform="matrix(.8 0 0 -.8 -.3 160.1)"><stop offset="0" stop-color="#32a071"/><stop offset=".069" stop-color="#2da771"/><stop offset=".476" stop-color="#15cf74"/><stop offset=".801" stop-color="#06e775"/><stop offset="1" stop-color="#00f076"/></linearGradient></defs><path d="M130.54 39.943H5.24c-2.755 0-5.012-2.23-5.012-4.954V5.26C.228 2.54 2.485.31 5.24.31h125.3c2.755 0 5.01 2.23 5.01 4.952V34.99c0 2.723-2.255 4.953-5.01 4.953z"/><path fill="#fff" d="M44.8 7.016c-.888 0-1.655.31-2.28.923-.624.61-.938 1.37-.938 2.28 0 .9.315 1.67.94 2.28.623.6 1.39.91 2.28.91.926 0 1.698-.31 2.284-.91.513-.52.77-1.21.77-2.06 0-.15-.006-.308-.044-.47l-.017-.08h-3.092v.916h2.137c-.06.425-.182.783-.43 1.03-.427.42-.96.634-1.61.634-.607 0-1.125-.21-1.573-.63-.44-.42-.66-.964-.66-1.643 0-.676.22-1.215.66-1.64.448-.422.965-.63 1.574-.63.68 0 1.2.22 1.58.67l.07.08.67-.666-.05-.07c-.24-.29-.57-.52-.97-.69-.403-.165-.83-.26-1.275-.26zm27.01 0c-.903 0-1.667.31-2.277.93-.608.616-.916 1.382-.916 2.275 0 .9.308 1.66.916 2.28.61.62 1.374.93 2.278.93.9 0 1.67-.31 2.28-.93.61-.61.92-1.38.92-2.27 0-.89-.31-1.65-.92-2.27-.61-.62-1.37-.93-2.27-.93zm-23.04.136v6.14h3.71v-.93h-2.738V10.68h2.467v-.916h-2.47V8.08h2.73v-.928h-3.71zm4.318 0v.928h1.678v5.21h.97V8.08h1.68v-.928h-4.33zm7.12 0v6.137h.974V7.15h-.973zm1.75 0v.928h1.68v5.21h.97V8.08h1.683v-.928h-4.33zm13.927 0v6.137h.967v-3.8l-.022-.84 2.928 4.64h.96V7.15h-.97v3.577l.023.838-2.79-4.416h-1.09zm-4.074.793c.62 0 1.14.212 1.56.64.43.425.64.965.64 1.636 0 .67-.21 1.22-.64 1.64-.42.43-.94.64-1.56.64-.62 0-1.13-.21-1.56-.64-.42-.42-.64-.96-.64-1.63 0-.67.22-1.21.64-1.63.43-.43.94-.64 1.57-.64z" style="line-height:normal;text-indent:0;text-align:start;text-decoration-line:none;text-decoration-style:solid;text-decoration-color:#000000;text-transform:none;block-progression:tb;isolation:auto;mix-blend-mode:normal" color="#000" font-family="sans-serif" white-space="normal" overflow="visible" solid-color="#000000"/><path fill="#fff" d="M68.526 21.865c-2.354 0-4.277 1.77-4.277 4.214 0 2.42 1.92 4.21 4.27 4.21 2.36 0 4.28-1.79 4.28-4.22 0-2.45-1.93-4.22-4.29-4.22zm0 6.768c-1.29 0-2.403-1.054-2.403-2.554 0-1.52 1.112-2.56 2.403-2.56 1.292 0 2.41 1.03 2.41 2.55 0 1.5-1.118 2.55-2.41 2.55zm-9.333-6.768c-2.36 0-4.278 1.77-4.278 4.214 0 2.42 1.918 4.21 4.278 4.21 2.358 0 4.278-1.79 4.278-4.22 0-2.45-1.92-4.22-4.27-4.22zm0 6.768c-1.293 0-2.408-1.054-2.408-2.554 0-1.52 1.115-2.56 2.408-2.56 1.292 0 2.403 1.03 2.403 2.55 0 1.5-1.11 2.55-2.403 2.55zm-11.107-5.477v1.79h4.327c-.127 1.002-.465 1.737-.984 2.25-.64.62-1.62 1.307-3.35 1.307-2.66 0-4.75-2.124-4.75-4.756s2.08-4.756 4.74-4.756c1.44 0 2.49.56 3.26 1.28l1.27-1.26c-1.08-1.02-2.52-1.8-4.538-1.8-3.65 0-6.72 2.94-6.72 6.55s3.07 6.55 6.72 6.55c1.976 0 3.46-.64 4.62-1.84 1.197-1.18 1.57-2.84 1.57-4.18 0-.41-.035-.8-.097-1.12h-6.09zm45.416 1.39c-.352-.944-1.438-2.68-3.65-2.68-2.194 0-4.02 1.706-4.02 4.213 0 2.36 1.807 4.21 4.23 4.21 1.958 0 3.088-1.18 3.553-1.87l-1.453-.96c-.485.7-1.146 1.16-2.1 1.16-.95 0-1.63-.43-2.065-1.28l5.703-2.33-.2-.48zm-5.814 1.402c-.05-1.625 1.277-2.457 2.227-2.457.744 0 1.376.37 1.586.9l-3.81 1.57zm-4.634 4.088h1.874V17.652h-1.874v12.384zm-3.07-7.233h-.063c-.42-.493-1.22-.938-2.24-.938-2.13 0-4.08 1.852-4.08 4.228 0 2.36 1.95 4.2 4.09 4.2 1.02 0 1.82-.45 2.24-.958H80v.604c0 1.61-.87 2.47-2.276 2.47-1.145 0-1.855-.82-2.15-1.51l-1.63.67c.47 1.11 1.715 2.49 3.78 2.49 2.198 0 4.05-1.28 4.05-4.39v-7.56h-1.78v.68zm-2.144 5.83c-1.292 0-2.373-1.07-2.373-2.54 0-1.485 1.08-2.57 2.373-2.57 1.273 0 2.277 1.085 2.277 2.57 0 1.47-1.004 2.54-2.277 2.54zm24.438-10.98h-4.483v12.383h1.87v-4.693h2.613c2.076 0 4.112-1.485 4.112-3.846 0-2.36-2.04-3.845-4.112-3.845zm.05 5.968h-2.664v-4.24h2.663c1.396 0 2.193 1.15 2.193 2.13 0 .96-.797 2.13-2.193 2.13zm11.555-1.78c-1.35 0-2.755.59-3.333 1.9l1.66.69c.356-.68 1.013-.91 1.707-.91.97 0 1.954.58 1.97 1.6v.13c-.34-.19-1.064-.48-1.955-.48-1.787 0-3.607.98-3.607 2.79 0 1.66 1.463 2.73 3.11 2.73 1.257 0 1.95-.56 2.387-1.21h.064v.96h1.805v-4.75c0-2.194-1.65-3.423-3.8-3.423zm-.225 6.79c-.612 0-1.464-.3-1.464-1.05 0-.96 1.063-1.32 1.983-1.32.823 0 1.21.18 1.71.42-.148 1.15-1.147 1.96-2.23 1.96zm10.61-6.51l-2.147 5.37h-.06l-2.22-5.37h-2.01l3.34 7.51-1.9 4.18h1.96l5.14-11.675h-2.08zm-16.85 7.93h1.874v-12.4h-1.874v12.39z"/><path fill="url(#a)" d="M16.15 33.71l-.06-.056c-.236-.244-.372-.623-.372-1.114V15.01c0-.49.136-.87.372-1.113l.06-.054 9.937 9.818v.24l-9.937 9.81z" transform="matrix(1.3 0 0 -1.3 -9.4 49.9)"/><path fill="url(#b)" d="M29.395 20.387l-3.31 3.275v.23L29.4 27.17l.073-.043 3.924-2.206c1.12-.62 1.12-1.65 0-2.28l-3.924-2.2-.078-.04z" transform="matrix(1.3 0 0 -1.3 -9.4 49.9)"/><path fill="url(#c)" d="M29.473 20.43l-3.387 3.348-9.996-9.88c.372-.387.98-.434 1.668-.048l11.715 6.58" transform="matrix(1.3 0 0 -1.3 -9.4 49.9)"/><path fill="url(#d)" d="M29.473 27.125l-11.715 6.58c-.69.382-1.296.335-1.668-.05l9.996-9.877 3.387 3.347z" transform="matrix(1.3 0 0 -1.3 -9.4 49.9)"/><path fill="#fff" d="M13.686 31.742l20.33-11.415c.662-.372 1.028-.85 1.09-1.338 0 .53-.362 1.07-1.09 1.48l-20.33 11.42c-1.456.81-2.652.13-2.652-1.52v-.15c0 1.64 1.196 2.32 2.652 1.51z"/></svg>