<svg id="v1.2" xmlns="http://www.w3.org/2000/svg" width="51.406" height="62.844" viewBox="0 0 51.406 62.844">
  <metadata><?xpacket begin="﻿" id="W5M0MpCehiHzreSzNTczkc9d"?>
<x:xmpmeta xmlns:x="adobe:ns:meta/" x:xmptk="Adobe XMP Core 5.6-c142 79.160924, 2017/07/13-01:06:39        ">
   <rdf:RDF xmlns:rdf="http://www.w3.org/1999/02/22-rdf-syntax-ns#">
      <rdf:Description rdf:about=""/>
   </rdf:RDF>
</x:xmpmeta>
                                                                                                    
                                                                                                    
                                                                                                    
                                                                                                    
                                                                                                    
                                                                                                    
                                                                                                    
                                                                                                    
                                                                                                    
                                                                                                    
                                                                                                    
                                                                                                    
                                                                                                    
                                                                                                    
                                                                                                    
                                                                                                    
                                                                                                    
                                                                                                    
                                                                                                    
                                                                                                    
                           
<?xpacket end="w"?></metadata>
<defs>
    <style>
      .cls-1 {
        fill: #ffc612;
      }

      .cls-1, .cls-2, .cls-3, .cls-4, .cls-5, .cls-6, .cls-7 {
        fill-rule: evenodd;
      }

      .cls-2 {
        fill: none;
        stroke: #3ba4e8;
        stroke-width: 2px;
      }

      .cls-3 {
        fill: #566478;
      }

      .cls-4 {
        fill: #718095;
      }

      .cls-5 {
        fill: #fff;
      }

      .cls-6 {
        fill: #3c485b;
        opacity: 0.5;
      }

      .cls-7 {
        fill: #3ba4e8;
      }
    </style>
  </defs>
  <path id="Shape_7_copy" data-name="Shape 7 copy" class="cls-1" d="M225.472,138.078c-0.87-2.993-4.853-2.968-6.141-5.729s-0.581-5.912-3.037-7.832c-2.639-2.062-5.237.333-8.918-.772s-4.152-4.885-7.5-4.885c-3.117,0-3.166,2.643-7.216,4.3s-5.838-1.092-8.367.73-1.5,4.578-3.341,7.707-5.376,2.527-6.362,5.484,1.611,4.709,1.795,8.206-2.884,5.193-1.955,8.168,3.676,2.479,6.253,5.608,0.7,5.9,3.189,7.771,4.855-.763,8.352.894,4.013,4.379,7.13,4.44,3.434-2.133,7.3-4.158,5.816,1.207,8.38-.565,1.466-4.511,3.491-7.64,5.424-2.421,6.468-5.359-2.186-4.373-1.634-8.239,2.985-5.136,2.115-8.129m-25.658-11.84a19.511,19.511,0,1,1-19.51,19.511A19.511,19.511,0,0,1,199.814,126.238Z" transform="translate(-174.25 -118.875)"/>
  <path id="top" class="cls-2" d="M199.838,129.7a16.446,16.446,0,0,1,7.41,31.126c-1.381.7-.3,8.248-1.867,8.534-0.962.175-4.531,0.589-5.543,0.589a16.4,16.4,0,0,1-6.474-1.323c-0.3-.13-0.6-7.631-0.891-7.777A16.446,16.446,0,0,1,199.838,129.7Z" transform="translate(-174.25 -118.875)"/>
  <g id="bottom">
    <path id="bottom_cap" data-name="bottom cap" class="cls-3" d="M199.424,177.852c1.5,0,2.714-.349,2.714,1.151a2.715,2.715,0,1,1-5.429,0C196.709,177.5,197.924,177.852,199.424,177.852Z" transform="translate(-174.25 -118.875)"/>
    <path id="bottom-2" data-name="bottom" class="cls-4" d="M199.493,166.808c3.4,0,6.236-2.063,6.911,1.134,0.1,0.473.152,6.118,0.152,6.62,0,3.9-3.162,4.763-7.063,4.763s-7.064-.862-7.064-4.763c0-.643.086-6.42,0.247-7.013C193.492,164.55,196.235,166.808,199.493,166.808Z" transform="translate(-174.25 -118.875)"/>
    <g id="blicks">
      <path id="Shape_11_copy_2" data-name="Shape 11 copy 2" class="cls-5" d="M196.262,167.919l-1.368,2.1h2.945l1.473-2.1h-3.05Zm0,3.682-1.368,2.1h2.945l1.473-2.1h-3.05Zm0,3.681-1.368,2.1h2.945l1.473-2.1h-3.05Z" transform="translate(-174.25 -118.875)"/>
    </g>
    <g id="shadow">
      <path id="Shape_11_copy_2-2" data-name="Shape 11 copy 2" class="cls-3" d="M199.536,167.919l-1.367,2.1h2.945l1.473-2.1h-3.051Zm0,3.682-1.367,2.1h2.945l1.473-2.1h-3.051Zm0,3.681-1.367,2.1h2.945l1.473-2.1h-3.051Z" transform="translate(-174.25 -118.875)"/>
    </g>
    <path id="lines" class="cls-6" d="M205.569,168.94a18.067,18.067,0,0,1-5.954,1.465c-2.638,0-6.3.054-6.3,0.054v0.871s3.448-.012,6.278-0.012a16.358,16.358,0,0,0,6.012-1.55Zm0,3.682a18.067,18.067,0,0,1-5.954,1.465c-2.638,0-6.3.053-6.3,0.053v0.872s3.448-.039,6.278-0.039a17.259,17.259,0,0,0,6.012-1.447Z" transform="translate(-174.25 -118.875)"/>
  </g>
  <g id="inner">
    <path id="Shape_4_copy_7" data-name="Shape 4 copy 7" class="cls-7" d="M201.31,159.4h1.473v7.362H201.31V159.4Z" transform="translate(-174.25 -118.875)"/>
    <path id="Shape_4_copy_6" data-name="Shape 4 copy 6" class="cls-7" d="M196.893,159.4h1.472v7.362h-1.472V159.4Z" transform="translate(-174.25 -118.875)"/>
    <path id="Shape_4_copy_5" data-name="Shape 4 copy 5" class="cls-7" d="M204.3,144.722l1.231,0.128L202.7,159.49l-1.369-.036Z" transform="translate(-174.25 -118.875)"/>
    <path id="Shape_4_copy_4" data-name="Shape 4 copy 4" class="cls-7" d="M194.147,144.85l1.323-.266,2.834,14.778-1.462-.056Z" transform="translate(-174.25 -118.875)"/>
    <path id="Shape_5_copy" data-name="Shape 5 copy" class="cls-1" d="M205.1,148.04s-0.927-3.155-5.029-3.155a5.267,5.267,0,0,0-5.2,3.129l0.273,0.93a5.381,5.381,0,0,1,4.924-2.738,4.6,4.6,0,0,1,4.578,2.692Z" transform="translate(-174.25 -118.875)"/>
  </g>
</svg>
