<svg width="30" height="30" viewBox="0 0 30 30" fill="none" xmlns="http://www.w3.org/2000/svg">
<path fill-rule="evenodd" clip-rule="evenodd" d="M0 7.36292H30.0003V13.0223H0V7.36292Z" fill="#EE2C55"/>
<path fill-rule="evenodd" clip-rule="evenodd" d="M23.7377 18.2603C23.8759 18.3809 23.9868 18.53 24.0628 18.6974C24.1387 18.8649 24.178 19.0468 24.178 19.2309C24.178 19.4149 24.1387 19.5969 24.0628 19.7643C23.9868 19.9318 23.8759 20.0809 23.7377 20.2015C23.4411 20.4603 23.0616 20.6028 22.6689 20.6028C22.2763 20.6028 21.8968 20.4603 21.6002 20.2015L15.9095 15.0288H14.042L8.35131 20.2015C8.05467 20.4603 7.6752 20.6028 7.28255 20.6028C6.8899 20.6028 6.51043 20.4603 6.21379 20.2015C6.07611 20.0805 5.96576 19.9313 5.89014 19.7639C5.81453 19.5965 5.77541 19.4148 5.77541 19.2309C5.77541 19.047 5.81453 18.8652 5.89014 18.6978C5.96576 18.5304 6.07611 18.3812 6.21379 18.2603L9.77257 15.0288L1.875 14.9081V29.9997H28.1252V14.9081L20.1789 15.0288L23.7377 18.2603Z" fill="#EE2C55"/>
<path fill-rule="evenodd" clip-rule="evenodd" d="M22.3656 -0.000244141C20.1925 -0.000244141 17.4475 1.5806 14.9406 4.24992C12.4393 1.5806 9.69428 -0.000244141 7.52676 -0.000244141C6.41675 -0.000244141 5.46799 0.416661 4.78923 1.20142C3.6661 2.49175 3.51797 5.01393 4.23985 7.43424H7.91489C7.91489 7.43424 6.80863 5.53459 7.11238 3.88018C7.1405 3.84622 7.25863 3.78397 7.52488 3.78397C8.59927 3.78397 11.0968 5.06298 13.2568 7.43424H16.7162C18.8856 5.04977 21.2538 3.78397 22.3656 3.78397C22.6956 3.78397 22.7781 3.8764 22.7781 3.8764C23.0106 6.02318 21.9681 7.43424 21.9681 7.43424H25.7894C26.5151 5.01393 26.2207 2.49175 25.105 1.20142C24.4225 0.416661 23.4775 -0.000244141 22.3675 -0.000244141H22.3656Z" fill="#EE2C55"/>
</svg>
