<svg xmlns="http://www.w3.org/2000/svg" width="135" height="40" viewBox="0 0 135 40">  <path id="black-background" d="M130.198 39.99H4.728C2.123 39.99 0 37.87 0 35.267V4.727C0 2.12 2.122 0 4.73 0h125.467c2.604 0 4.73 2.12 4.73 4.726v30.542c0 2.604-2.124 4.72-4.73 4.72z"/>  <path id="white-apple" fill="#fff" d="M28.234 6.217c-1.265.056-2.846.874-3.757 1.943-.806.942-1.526 2.488-1.34 3.94 1.42.106 2.88-.717 3.79-1.793.875-1.093 1.473-2.58 1.307-4.09zm-.754 6.166c-1.696.126-3.267 1.185-4.144 1.185-1.022 0-2.566-1.157-4.23-1.123-2.14.033-4.14 1.274-5.24 3.198-2.265 3.923-.574 9.688 1.597 12.86 1.086 1.553 2.355 3.285 4.016 3.224 1.62-.066 2.23-1.036 4.19-1.036 1.94 0 2.51 1.04 4.2 1 1.74-.02 2.84-1.56 3.89-3.12 1.25-1.78 1.76-3.53 1.78-3.62-.04-.01-3.39-1.29-3.42-5.15-.03-3.22 2.63-4.79 2.76-4.86-1.51-2.2-3.86-2.5-4.68-2.52-.25-.03-.49-.03-.74-.01z"/>  <path id="white-text" fill="#fff" d="M84.523 17.998c-1.356 0-2.445.35-3.267 1.05-.822.698-1.235 1.59-1.235 2.682 0 1.672 1.17 2.944 3.5 3.813.86.315 1.47.657 1.84 1.025.37.37.55.823.55 1.364 0 .604-.22 1.09-.67 1.45-.44.362-1.07.544-1.87.544-1.12 0-2.14-.276-3.08-.83l-.49 1.774c.87.56 2.02.83 3.45.83 1.55 0 2.76-.39 3.63-1.16.79-.71 1.19-1.63 1.19-2.76 0-.92-.27-1.69-.81-2.302-.54-.62-1.38-1.155-2.53-1.617-.93-.37-1.58-.71-1.93-1.03-.41-.34-.61-.77-.61-1.3 0-.47.18-.87.54-1.2.426-.36 1.015-.55 1.767-.55.95 0 1.806.21 2.56.61l.535-1.73c-.8-.42-1.81-.63-3.024-.63zm-37.808.197l-4.285 13.31h2.21l1.186-3.91h4.324l1.245 3.91h2.27l-4.304-13.31h-2.64zm46.043 1.32l-2.096.63v1.76h-1.398v1.6h1.398v4.837c0 1.212.238 2.072.71 2.586.476.514 1.136.77 1.978.77.685 0 1.238-.078 1.658-.235l-.06-1.62c-.25.068-.565.1-.946.1-.83 0-1.244-.59-1.244-1.775v-4.66h2.35v-1.604h-2.35v-2.388zm-44.82.458h.04c.33 1.316.553 2.152.672 2.507l1.125 3.475H46.2l1.107-3.475c.29-1.105.5-1.94.632-2.507zm70.232 1.722c-1.408 0-2.528.513-3.356 1.54-.79.96-1.185 2.165-1.185 3.61 0 1.474.42 2.65 1.27 3.524.85.87 2.02 1.31 3.5 1.31 1.23 0 2.31-.2 3.21-.59l-.34-1.48c-.78.3-1.64.45-2.59.45-.86 0-1.56-.23-2.1-.67-.59-.5-.9-1.23-.93-2.18h6.39c.05-.27.07-.59.07-.97 0-1.2-.28-2.21-.85-3.02-.71-1.03-1.758-1.54-3.14-1.54zm-57.475.016c-1.448 0-2.527.58-3.238 1.72h-.04l-.118-1.52h-1.88c.05 1.08.08 2.13.08 3.16V35.4h2.13v-5.04c.55.907 1.47 1.36 2.74 1.36 1.17 0 2.16-.42 2.95-1.263.89-.947 1.33-2.237 1.33-3.87 0-1.46-.38-2.637-1.13-3.534-.76-.895-1.71-1.342-2.84-1.342zm11.037 0c-1.45 0-2.528.58-3.238 1.72h-.04l-.118-1.52H66.46c.053 1.08.08 2.13.08 3.16V35.4h2.132v-5.04c.555.907 1.467 1.36 2.738 1.36 1.178 0 2.164-.42 2.96-1.263.886-.947 1.33-2.237 1.33-3.87 0-1.46-.38-2.637-1.134-3.534-.758-.895-1.703-1.342-2.834-1.342zm40.356 0c-.553 0-1.066.18-1.54.52-.487.38-.842.89-1.068 1.52h-.058l-.078-1.83h-1.858c.04.91.063 1.92.063 3.02v6.58h2.13v-5.04c0-.76.18-1.39.53-1.89.41-.57.98-.85 1.73-.85.23 0 .46.02.67.06v-2.04c-.16-.02-.34-.03-.53-.03zm-11.02.01c-1.46 0-2.623.48-3.486 1.42-.86.95-1.293 2.17-1.293 3.65 0 1.42.42 2.6 1.25 3.54.83.94 1.95 1.4 3.36 1.4 1.46 0 2.63-.48 3.51-1.46.84-.94 1.26-2.15 1.26-3.63 0-1.43-.41-2.6-1.23-3.51-.86-.93-1.99-1.4-3.4-1.4zm16.944 1.46c.76 0 1.33.3 1.7.89.288.47.426 1.01.41 1.64h-4.438c.065-.64.275-1.19.63-1.65.432-.58 1-.87 1.698-.87zm-17.02.1c.83 0 1.47.38 1.916 1.15.38.63.57 1.39.57 2.27 0 .88-.195 1.64-.587 2.29-.46.78-1.1 1.16-1.91 1.16-.83 0-1.47-.38-1.94-1.14-.38-.62-.57-1.38-.57-2.26 0-.9.19-1.67.57-2.3.45-.76 1.1-1.14 1.96-1.14zm-40.988.14c.776 0 1.394.32 1.855.95.42.61.63 1.38.63 2.31 0 1.02-.23 1.83-.68 2.45-.45.62-1.07.93-1.88.93-.69 0-1.24-.24-1.67-.72-.43-.48-.64-1.07-.64-1.77v-1.6c0-.17.03-.38.09-.64.13-.56.41-1.02.84-1.37.42-.34.9-.52 1.43-.52zm11.035 0c.77 0 1.39.32 1.85.95.42.61.63 1.38.63 2.31 0 1.02-.23 1.83-.67 2.45-.45.62-1.07.93-1.88.93-.69 0-1.24-.24-1.67-.72-.43-.48-.64-1.07-.64-1.77v-1.6c0-.17.03-.38.1-.64.13-.56.41-1.02.83-1.37.43-.34.9-.52 1.43-.52z"/><path fill="#fff" d="M63.43 6.553v6.88h1.05v-6.88h-1.05zm8.205 0v5.61c0 .464-.01.893-.04 1.27h.893l.06-.728h.02c.32.553.816.834 1.485.834 1.203 0 2.086-1.07 2.086-2.54 0-1.42-.8-2.39-1.94-2.39-.69 0-1.2.26-1.51.78h-.02V6.55h-1.04zm6.054 0v6.88h1.04v-6.88h-1.04zm29.39 0v6.88h1.05V10.59c0-.747.5-1.115 1.04-1.115.63 0 .95.425.95 1.27v2.69h1.05V10.63c0-1.235-.61-2.01-1.61-2.01-.61 0-1.09.252-1.42.766h-.02V6.553h-1.05zm-46.05.135c-.36 0-.65.262-.65.62 0 .36.27.63.62.63.39 0 .66-.25.66-.63.01-.358-.28-.62-.64-.62zm-15.72.205l-2.11 6.54h1.09l.58-1.92H47l.61 1.92h1.117l-2.117-6.54h-1.3zm59.15.65l-1.03.31v.864h-.69v.787h.68v2.377c0 1.2.49 1.65 1.32 1.65.33 0 .61-.03.81-.11l-.03-.79c-.13.03-.28.05-.47.05-.41 0-.62-.29-.62-.87v-2.3h1.154v-.79h-1.15V7.55zm-58.55.223h.02c.16.65.27 1.057.33 1.232l.55 1.707h-1.75l.54-1.707c.14-.543.24-.95.31-1.232zm36.59.844c-1.34 0-2.23 1.08-2.23 2.53 0 1.44.87 2.37 2.35 2.37.61 0 1.13-.1 1.58-.29l-.17-.73c-.38.142-.81.22-1.27.22-.88 0-1.47-.506-1.49-1.4h3.14c.03-.125.04-.29.03-.473 0-1.35-.76-2.243-1.96-2.243zm32.1 0c-1.34 0-2.23 1.08-2.23 2.53 0 1.44.87 2.37 2.34 2.37.61 0 1.14-.1 1.58-.29l-.17-.73c-.38.142-.8.22-1.27.22-.87 0-1.46-.506-1.48-1.4h3.14c.03-.125.04-.29.03-.473 0-1.35-.76-2.243-1.96-2.243zm-57.78.01c-.64 0-1.19.13-1.62.4l.21.69c.36-.24.76-.35 1.23-.35.65 0 .98.31.98.93v.082c-1.75 0-2.76.6-2.76 1.765 0 .795.6 1.386 1.44 1.386.59 0 1.05-.21 1.37-.65h.03l.08.544h.94c-.05-.28-.07-.65-.07-1.122v-1.74c0-1.3-.62-1.95-1.86-1.95zm11.11 0c-.64 0-1.19.13-1.62.4l.21.69c.36-.24.76-.35 1.23-.35.65 0 .98.31.98.93v.082c-1.75 0-2.76.6-2.76 1.765 0 .795.6 1.386 1.44 1.386.59 0 1.06-.21 1.38-.65h.03l.08.544h.94c-.05-.28-.07-.65-.07-1.124v-1.73c0-1.3-.628-1.95-1.86-1.95zm22.92 0c-1.44 0-2.35 1.03-2.35 2.49 0 1.39.89 2.42 2.27 2.42 1.41 0 2.35-1.03 2.35-2.508 0-1.437-.92-2.418-2.27-2.418zm6.27 0c-.64 0-1.22.32-1.5.82h-.03l-.05-.73h-.92c.03.48.04.93.04 1.34v3.37h1.04v-2.8c0-.623.43-1.158 1.05-1.158.63 0 .95.417.95 1.25v2.71h1.04V10.6c0-1.23-.65-1.987-1.64-1.987zm-47.66.09l1.72 4.71h1.02L54 8.703h-1.1l-.79 2.497c-.146.457-.263.855-.34 1.194h-.03c-.085-.376-.202-.774-.34-1.19l-.8-2.484h-1.12zm11.04 0v4.71h1.05V8.71h-1.04zm21.92.62c.67 0 1.04.51 1.04 1.24h-2.18c.07-.72.54-1.247 1.14-1.247zm32.1 0c.67 0 1.04.51 1.04 1.24h-2.19c.07-.72.54-1.247 1.14-1.247zm-23.71.05c.73 0 1.22.71 1.22 1.67 0 .942-.5 1.7-1.24 1.7s-1.23-.71-1.23-1.68c0-.99.48-1.697 1.24-1.697zm-17 .05c.75 0 1.23.65 1.23 1.602 0 1.02-.47 1.66-1.26 1.66-.64 0-1.13-.536-1.13-1.186v-.826c0-.727.55-1.25 1.16-1.25zm-16.17 1.64v.73c0 .55-.5.96-1.03.96-.42 0-.72-.24-.72-.74 0-.67.58-.95 1.74-.95zm11.11 0v.73c0 .55-.5.96-1.03.96-.42 0-.72-.24-.72-.74 0-.67.58-.95 1.74-.95z"/></svg>